<svg width="1034" height="615" viewBox="0 0 1034 615" fill="none" xmlns="http://www.w3.org/2000/svg">
<g opacity="0.3" clip-path="url(#clip0_3450_91)">
<g clip-path="url(#clip1_3450_91)">
<path d="M-19.0161 697.647C67.5806 404.775 119.433 271.352 207.624 196.938C278.326 137.263 372.366 115.565 526.387 79.9953C639.654 53.8295 785.43 20.1595 978.196 -41.6028L978.24 -41.091C785.495 20.6424 639.743 54.3104 526.476 80.4762C372.526 116.04 278.51 137.736 207.874 197.351C119.795 271.674 67.9571 404.987 -18.5656 697.608L-19.0161 697.647Z" fill="#0E0E0E"/>
<path d="M-18.5632 697.607C71.747 349.328 113.941 214.968 280.224 168.064C320.898 156.604 362.447 146.156 407.808 134.756C540.849 101.308 706.669 59.5996 978.328 -40.0955L978.371 -39.5837C706.76 60.1074 540.938 101.789 407.897 135.237C362.512 146.638 320.964 157.087 280.337 168.542C114.31 215.37 72.1541 349.619 -18.0889 697.566L-18.5632 697.607Z" fill="#0E0E0E"/>
<path d="M-19.1554 697.657L-18.0743 692.707C55.5863 359.476 88.1016 212.212 284.589 182.778C425.02 161.723 541.822 131.374 727.764 61.0504C799.301 34.0052 881.079 1.03592 978.369 -39.6111L978.413 -39.0992C881.168 1.5168 799.411 34.4571 727.922 61.4982C541.911 131.855 425.109 162.204 284.654 183.261C88.475 212.669 55.9505 359.825 -17.6337 692.832L-18.6812 697.617L-19.1554 697.657Z" fill="#0E0E0E"/>
<path d="M-20.8182 697.799C-19.2589 689.226 -17.7356 680.791 -16.2267 672.467C39.5679 363.234 67.2619 209.87 288.948 197.466C501.72 185.553 622.501 128.296 906.298 -6.22463C929.205 -17.0862 953.168 -28.4452 978.307 -40.3117L978.35 -39.7999C953.236 -27.9353 929.318 -16.6073 906.455 -5.77678C622.613 128.775 501.811 186.061 288.966 197.953C67.6117 210.329 39.9559 363.581 -15.8121 672.567C-17.2996 680.863 -18.8275 689.243 -20.3677 697.761L-20.8182 697.799Z" fill="#0E0E0E"/>
<path d="M-23.568 698.037C-22.1738 688.094 -20.8178 678.263 -19.4716 668.595C21.9109 370.691 44.4391 208.597 293.311 212.157C510.759 215.258 613.143 158.489 819.645 44.017C866.323 18.1494 918.314 -10.6696 978.127 -42.4104L978.171 -41.8985C918.403 -10.1887 866.457 18.5993 819.826 44.4628C613.257 158.995 510.85 215.766 293.305 212.646C44.8172 209.107 22.2988 371.038 -19.0356 668.666C-20.3603 678.305 -21.7233 688.056 -23.1198 697.972L-23.5703 698.01L-23.568 698.037Z" fill="#0E0E0E"/>
<path d="M-27.4326 698.365C-26.6038 689.909 -25.7917 681.535 -24.9942 673.272C3.44444 380.411 20.2233 207.79 297.652 226.871C531.016 242.912 622.007 183.075 792.843 70.7594C844.963 36.4747 904.524 -2.68026 977.816 -46.0497L977.862 -45.5109C904.663 -2.17651 845.146 36.9475 793.072 71.2011C622.169 183.577 531.133 243.445 297.648 227.387C20.6274 208.326 3.86071 380.809 -24.5559 673.37C-25.3557 681.607 -26.17 689.953 -27.0035 698.356L-27.4302 698.392L-27.4326 698.365Z" fill="#0E0E0E"/>
<path d="M-32.4105 698.792C-32.1205 693.53 -31.8281 688.294 -31.5311 683.113C-15.3806 391.792 -5.12966 207.084 302.041 241.585C555.094 269.998 636.755 205.803 783.245 90.605C835.925 49.1894 896.975 1.19587 977.378 -51.4662L977.424 -50.9274C897.135 1.67065 836.13 49.6332 783.495 91.0178C636.915 206.278 555.211 270.531 302.012 242.076C-4.7256 207.619 -14.9453 392.135 -31.0974 683.157C-31.3944 688.339 -31.6677 693.518 -31.96 698.754L-32.4105 698.792Z" fill="#0E0E0E"/>
<path d="M-38.5047 699.314L-38.4622 696.461C-37.4892 626.335 -36.5768 561.642 -31.1025 504.483C-13.7158 323.615 49.5705 218.306 306.379 256.275C580.944 296.877 654 227.584 780.646 107.408C831.722 58.9659 891.522 2.23237 976.718 -58.8997L976.766 -58.334C891.682 2.70714 831.948 59.3807 780.918 107.792C654.184 228.057 581.083 297.381 306.326 256.768C49.8775 218.822 -13.3255 323.989 -30.6687 504.527C-36.169 561.662 -37.0578 626.352 -38.0308 696.478L-38.0779 699.277L-38.5047 699.314Z" fill="#0E0E0E"/>
<path d="M-45.6885 699.929C-47.9427 616.375 -49.6089 539.691 -41.8347 474.519C-22.8674 315.47 52.1102 225.09 310.718 270.966C607.89 323.717 672.514 248.823 781.49 122.561C829.665 66.7407 886.51 0.870475 975.902 -68.4364L975.95 -67.8707C886.696 1.37017 829.915 67.1535 781.806 122.914C672.745 249.292 608.055 324.246 310.664 271.459C52.3935 225.609 -22.4772 315.844 -41.3987 474.591C-49.1538 539.706 -47.5136 616.365 -45.2617 699.892L-45.6885 699.929Z" fill="#0E0E0E"/>
<path d="M-53.917 700.635C-59.9116 611.051 -64.1525 528.563 -54.6662 460.232C-34.2729 313.382 49.4427 231.888 315.079 285.656C635.622 350.546 691.761 269.729 784.174 136.635C828.447 72.8986 881.011 -2.80904 974.891 -80.2343L974.942 -79.6416C881.247 -2.28647 828.721 73.3093 784.514 136.985C691.995 270.225 635.792 351.129 315.004 286.178C49.7068 232.462 -33.904 313.785 -54.2256 460.357C-63.6928 528.632 -59.4565 611.066 -53.4641 700.623L-53.9147 700.662L-53.917 700.635Z" fill="#0E0E0E"/>
<path d="M-63.1395 701.421C-72.8795 608.82 -79.5258 523.064 -68.6564 453.312C-46.9872 314.114 44.2758 238.758 319.444 300.368C663.916 377.485 711.394 290.353 787.893 149.936C827.275 77.6093 874.408 -8.81416 973.693 -94.2462L973.744 -93.6536C874.663 -8.3475 827.594 77.9891 788.229 150.233C711.648 290.82 664.109 378.065 319.344 300.865C44.5163 239.335 -46.6443 314.492 -68.2418 453.413C-79.0921 523.108 -72.4481 608.837 -62.7127 701.385L-63.1395 701.421Z" fill="#0E0E0E"/>
<path d="M-73.3585 702.296C-86.6512 608.37 -95.391 520.758 -83.4632 450.536C-60.6423 316.423 37.6076 245.679 323.759 315.06C692.644 404.498 731.194 310.722 792.085 162.631C825.675 80.9485 866.067 -17.2459 972.315 -110.357L972.366 -109.764C866.37 -16.7833 826.034 81.2433 792.485 162.841C731.515 311.128 692.906 405.045 323.68 315.528C37.8717 246.254 -60.2497 316.823 -83.0249 450.634C-94.9573 520.802 -86.1984 608.358 -72.9317 702.259L-73.3585 702.296Z" fill="#0E0E0E"/>
<path d="M-84.4547 703.245C-100.999 609.001 -111.555 520.54 -98.7385 450.378C-74.8545 319.756 30.0362 252.65 328.122 329.748C721.833 431.58 751.165 330.858 796.567 174.812C823.292 82.9706 855.594 -27.9916 970.794 -128.137L970.845 -127.545C855.923 -27.5041 823.652 83.2655 796.987 174.966C751.511 331.263 722.146 432.177 328.042 330.216C30.2766 253.227 -74.4833 320.185 -98.2979 450.503C-111.121 520.584 -100.546 608.989 -84.0042 703.207L-84.4547 703.245Z" fill="#0E0E0E"/>
<path d="M-96.4056 704.268C-115.86 610.354 -127.911 521.723 -114.387 452.015C-89.5058 323.832 21.8234 259.676 332.488 344.49C751.441 458.843 771.148 350.858 801.109 186.581C819.831 83.8367 842.624 -40.8305 969.177 -147.023L969.228 -146.43C842.974 -40.3719 820.212 84.1026 801.521 186.654C771.491 351.236 751.753 459.413 332.382 344.933C22.0379 260.228 -89.1392 324.207 -113.972 452.116C-127.48 521.74 -115.43 610.344 -95.9789 704.231L-96.4056 704.268Z" fill="#0E0E0E"/>
<path d="M-109.165 705.363C-131.179 612.238 -144.423 523.899 -130.339 454.876C-104.504 328.348 13.1059 266.694 336.823 359.183C694.817 461.466 770.814 406.441 794.37 290.962C800.075 263.011 802.706 231.523 805.535 197.874C815.125 83.591 826.852 -55.679 967.543 -166.365L967.593 -165.772C827.252 -55.1976 815.554 83.8528 805.971 197.945C803.145 231.621 800.515 263.136 794.787 291.089C771.162 406.872 695.081 462.041 336.722 359.68C13.3226 267.272 -104.161 328.725 -129.922 455.003C-143.99 523.943 -130.726 612.226 -108.738 705.326L-109.165 705.363Z" fill="#0E0E0E"/>
<path d="M-122.655 706.516C-146.848 614.446 -161.035 526.811 -146.519 458.647C-119.803 333.21 4.0345 273.71 341.163 373.872C691.988 478.071 780.796 435.979 802.812 332.654C810.327 297.384 810.062 254.936 809.789 208.771C809.032 85.4949 808.112 -64.5247 954.358 -176.988L955.259 -177.066C808.529 -64.669 809.457 85.4315 810.218 208.761C810.495 254.98 810.76 297.428 803.229 332.781C781.167 436.409 692.231 478.674 341.06 374.342C4.25117 274.289 -119.434 333.613 -146.102 458.775C-160.601 526.855 -146.416 614.463 -122.205 706.477L-122.655 706.516Z" fill="#0E0E0E"/>
<path d="M-168.613 512.481C-168.116 495.124 -166.281 478.603 -162.854 463.113C-135.267 338.361 -5.31836 280.78 345.503 388.562C695.664 496.157 793.245 462.541 814.426 366.75C823.289 326.588 818.774 275.494 813.796 219.284C802.497 91.7268 788.901 -62.12 924.129 -174.401L924.982 -174.474C789.317 -62.2912 802.92 91.6364 814.223 219.247C819.205 275.512 823.749 326.657 814.843 366.877C793.593 462.972 695.906 496.76 345.402 389.06C-5.10165 281.359 -134.922 338.766 -162.435 463.267C-166.1 479.89 -167.966 497.717 -168.269 516.495L-168.613 512.481ZM-136.809 707.728C-146.583 673.611 -154.802 640.094 -160.44 607.984L-160.878 602.865C-155.227 636.521 -146.669 671.773 -136.358 707.689L-136.809 707.728Z" fill="#0E0E0E"/>
<path d="M-174.015 449.359C-136.173 338.384 4.03543 293.793 349.865 403.251C702.569 514.888 807.171 487.672 827.846 397.136C837.873 353.264 828.184 294.472 817.503 229.387C795.819 97.6987 769.952 -59.7113 894.206 -171.84L895.035 -171.911C770.367 -59.8826 796.218 97.6103 817.88 229.328C828.589 294.465 838.283 353.311 828.218 397.294C807.474 488.135 702.741 515.497 349.717 403.752C3.29517 294.073 -136.618 339.047 -173.92 450.464L-174.015 449.359ZM-151.581 708.992L-151.875 708.068L-152.052 705.993C-151.753 706.972 -151.452 707.977 -151.154 708.956L-151.581 708.992Z" fill="#0E0E0E"/>
<path d="M-176.11 424.871C-121.24 337.323 29.543 312.479 354.206 417.968C711.346 534.001 822.083 512.041 842.444 425.385C853.474 378.443 838.012 312.465 820.8 239.173C788.98 103.467 751.289 -57.3001 864.685 -169.313L865.444 -169.378C751.681 -57.4693 789.376 103.352 821.22 239.056C838.438 312.428 853.906 378.46 842.864 425.539C822.43 512.473 711.565 534.607 354.105 418.465C29.0728 312.845 -121.528 337.864 -176.046 425.625L-176.11 424.871Z" fill="#0E0E0E"/>
<path d="M-177.229 411.804C-110.099 340.793 47.5287 329.231 358.544 432.658C721.408 553.331 837.733 535.831 857.874 452.179C869.823 402.58 847.986 329.658 823.703 248.532C781.929 108.983 732.89 -54.8842 835.592 -166.824L836.351 -166.889C733.303 -55.0824 782.323 108.84 824.121 248.387C848.436 329.619 870.302 402.593 858.317 452.331C838.08 536.263 721.627 553.936 358.441 433.128C47.2053 329.638 -110.319 341.301 -177.176 412.424L-177.229 411.804Z" fill="#0E0E0E"/>
<path d="M-177.827 404.826C-101 346.663 61.7598 345.109 362.907 447.372C732.392 572.852 853.949 559.274 873.982 477.992C886.803 426.012 858.1 346.268 826.166 257.52C805.077 198.916 782.577 136.39 769.655 75.2691C750.996 -12.9868 752.368 -98.2622 806.779 -164.386L807.467 -164.444C752.812 -98.3816 751.414 -13.1311 770.075 75.1518C782.992 136.219 805.468 198.747 826.556 257.324C858.522 346.178 887.23 425.975 874.376 478.121C854.27 559.681 732.559 573.408 362.754 447.82C61.4601 345.514 -101.151 347.137 -177.779 405.392L-177.827 404.826Z" fill="#0E0E0E"/>
<path d="M-178.155 400.974C-92.9368 353.789 73.9776 360.591 367.249 462.09C744.007 592.456 870.598 582.437 890.582 503.086C904.218 448.919 868.199 362.393 828.172 266.141C797.678 192.82 764.815 113.867 749.76 39.251C734.666 -35.5242 737.48 -105.916 778.401 -161.929L779.041 -161.984C737.947 -106.037 735.11 -35.6436 750.182 39.1606C765.209 113.724 798.069 192.651 828.561 265.945C868.643 362.273 904.668 448.88 891.001 503.24C870.971 582.893 744.226 593.061 367.146 462.56C73.6756 360.969 -93.1278 354.348 -178.086 401.783L-178.155 400.974Z" fill="#0E0E0E"/>
</g>
</g>
<defs>
<clipPath id="clip0_3450_91">
<rect width="1034" height="615" fill="white"/>
</clipPath>
<clipPath id="clip1_3450_91">
<rect width="1189.88" height="788.452" fill="white" transform="translate(-219.023 -36.5703) rotate(-4.89142)"/>
</clipPath>
</defs>
</svg>
