<svg xmlns="http://www.w3.org/2000/svg" xmlns:xlink="http://www.w3.org/1999/xlink" width="500" zoomAndPan="magnify" viewBox="0 0 375 374.999991" height="500" preserveAspectRatio="xMidYMid meet" version="1.0"><defs><clipPath id="16fd6dad01"><path d="M 1 73.125 L 375 73.125 L 375 374 L 1 374 Z M 1 73.125 " clip-rule="nonzero"/></clipPath></defs><g clip-path="url(#16fd6dad01)"><path fill="#ffffff" d="M 374.0625 75.644531 C 373.082031 74.09375 371.628906 73.359375 370.089844 74.074219 C 366.664062 75.671875 362.933594 76.171875 359.410156 77.421875 C 345.226562 82.457031 332.359375 90.203125 319.285156 97.355469 C 311.1875 101.789062 303.15625 106.585938 295.433594 111.875 C 284.75 119.195312 274.242188 126.71875 263.808594 134.386719 C 254.363281 141.328125 244.902344 148.378906 236.535156 156.449219 C 227.792969 164.871094 218.75 172.988281 210.085938 181.5 C 200.21875 191.195312 190.535156 200.957031 181.808594 211.730469 C 174.652344 220.570312 166.753906 228.816406 160.007812 238.011719 C 154.179688 245.953125 148.441406 253.96875 142.640625 261.929688 C 139.535156 266.191406 135.6875 270.027344 133.554688 274.847656 C 131.753906 278.917969 129.085938 282.265625 126.707031 285.898438 C 123.101562 291.410156 118.472656 296.285156 116.242188 302.710938 C 115.855469 303.824219 115.015625 306.914062 112.285156 304.589844 C 104.957031 298.355469 97.734375 292.011719 89.75 286.570312 C 82.453125 281.59375 75.347656 276.386719 67.457031 272.3125 C 56.097656 266.445312 44.933594 260.285156 32.363281 257.082031 C 25.6875 255.382812 19.503906 255.261719 13.335938 258.433594 C 10.328125 259.980469 10.195312 263.289062 8.742188 265.773438 C 8.164062 266.761719 9.414062 267.292969 10.464844 267.773438 C 8.015625 267.570312 7.195312 268.496094 7.597656 270.886719 C 7.828125 272.242188 8.199219 273.753906 6.027344 274.644531 C 4.890625 275.109375 2.558594 276.636719 4.574219 278.917969 C 4.777344 279.152344 4.753906 279.992188 4.628906 280.042969 C 2.351562 280.972656 2.824219 283.398438 1.953125 285.054688 C 0.046875 288.691406 1.574219 292.917969 4.964844 295.195312 C 13.292969 300.792969 22.648438 304.613281 30.796875 310.574219 C 36.53125 314.769531 42.933594 318.050781 48.96875 321.828125 C 54.730469 325.4375 59.679688 329.976562 64.9375 334.03125 C 72.898438 340.164062 79.9375 347.625 85.746094 356.03125 C 86.136719 356.597656 86.730469 357.195312 87.355469 357.40625 C 89.367188 358.09375 91.132812 358.609375 91.394531 361.378906 C 91.636719 363.917969 95.765625 361.761719 96.21875 364.644531 C 96.234375 364.746094 96.273438 364.871094 96.347656 364.925781 C 97.839844 366.015625 98.878906 368.375 100.941406 367.882812 C 103.847656 367.1875 105.207031 371.328125 108.144531 369.785156 C 108.183594 369.761719 108.488281 370.054688 108.523438 370.230469 C 109.101562 373.066406 111.0625 372.511719 112.859375 371.871094 C 114.074219 371.4375 115.089844 371.679688 116.15625 372.125 C 122.089844 374.59375 124.15625 373.863281 128.53125 369.152344 C 130.640625 366.875 129.460938 364.027344 130.636719 362.011719 C 132.351562 359.070312 132.773438 355.753906 134.269531 352.835938 C 137.261719 346.984375 138.480469 340.503906 140.992188 334.503906 C 142.074219 331.925781 142.714844 328.945312 145.410156 327.230469 C 146.304688 326.664062 146.503906 325.5 146.617188 324.441406 C 146.75 323.164062 147.234375 322.042969 148.011719 321.027344 C 153.910156 313.363281 158.175781 304.671875 162.8125 296.289062 C 167.914062 287.058594 173.789062 278.4375 179.949219 269.96875 C 186.222656 261.34375 193.015625 253.105469 199.519531 244.65625 C 203.421875 239.585938 207.328125 234.4375 211.371094 229.515625 C 216.722656 223 222.125 216.457031 228.503906 210.738281 C 239.015625 201.324219 247.355469 189.808594 257.203125 179.71875 C 263.578125 173.183594 269.175781 165.839844 276.527344 160.332031 C 281.121094 156.894531 284.984375 152.71875 289.015625 148.75 C 293.753906 144.085938 298.792969 139.742188 303.796875 135.433594 C 309.132812 130.835938 314.703125 126.472656 320.109375 121.921875 C 322.242188 120.125 323.570312 117.542969 326.242188 116.273438 C 330.679688 114.160156 334.136719 110.613281 337.707031 107.398438 C 343.03125 102.601562 349.019531 98.707031 354.585938 94.257812 C 360.867188 89.234375 367.652344 84.851562 373.113281 78.847656 C 373.921875 77.957031 375.023438 77.160156 374.0625 75.644531 Z M 374.0625 75.644531 " fill-opacity="1" fill-rule="nonzero"/></g><path stroke-linecap="butt" transform="matrix(0.514959, -0.545268, 0.545268, 0.514959, 194.116895, 222.000585)" fill="none" stroke-linejoin="miter" d="M -0.00108854 2.000296 L 133.726222 1.998765 " stroke="#ffffff" stroke-width="4" stroke-opacity="1" stroke-miterlimit="4"/></svg>